<mxfile host="app.diagrams.net" agent="Mozilla/5.0 (Windows NT 10.0; Win64; x64) AppleWebKit/537.36 (KHTML, like Gecko) Chrome/135.0.0.0 Safari/537.36" version="26.1.1">
  <diagram name="Page-1" id="TgggUiVBYH5XN-vmf9cq">
    <mxGraphModel dx="1076" dy="598" grid="1" gridSize="10" guides="1" tooltips="1" connect="1" arrows="1" fold="1" page="1" pageScale="1" pageWidth="850" pageHeight="1100" math="0" shadow="0">
      <root>
        <mxCell id="0" />
        <mxCell id="1" parent="0" />
        <mxCell id="tAJ4wL65wkqjfYGuhMK7-54" value="" style="rounded=0;whiteSpace=wrap;html=1;" parent="1" vertex="1">
          <mxGeometry x="468" y="40" width="661" height="650" as="geometry" />
        </mxCell>
        <mxCell id="tAJ4wL65wkqjfYGuhMK7-10" style="edgeStyle=orthogonalEdgeStyle;rounded=0;orthogonalLoop=1;jettySize=auto;html=1;exitX=1;exitY=0.5;exitDx=0;exitDy=0;" parent="1" source="tAJ4wL65wkqjfYGuhMK7-1" edge="1">
          <mxGeometry relative="1" as="geometry">
            <mxPoint x="858" y="150" as="targetPoint" />
          </mxGeometry>
        </mxCell>
        <mxCell id="tAJ4wL65wkqjfYGuhMK7-11" value="state" style="edgeLabel;html=1;align=center;verticalAlign=middle;resizable=0;points=[];" parent="tAJ4wL65wkqjfYGuhMK7-10" vertex="1" connectable="0">
          <mxGeometry x="-0.2435" y="1" relative="1" as="geometry">
            <mxPoint x="3" y="-9" as="offset" />
          </mxGeometry>
        </mxCell>
        <mxCell id="tAJ4wL65wkqjfYGuhMK7-1" value="State Machine" style="rounded=0;whiteSpace=wrap;html=1;" parent="1" vertex="1">
          <mxGeometry x="668" y="75" width="120" height="150" as="geometry" />
        </mxCell>
        <mxCell id="tAJ4wL65wkqjfYGuhMK7-8" value="" style="group" parent="1" vertex="1" connectable="0">
          <mxGeometry x="858" y="100" width="30" height="100" as="geometry" />
        </mxCell>
        <mxCell id="tAJ4wL65wkqjfYGuhMK7-4" value="" style="endArrow=none;html=1;rounded=0;" parent="tAJ4wL65wkqjfYGuhMK7-8" edge="1">
          <mxGeometry width="50" height="50" relative="1" as="geometry">
            <mxPoint y="75" as="sourcePoint" />
            <mxPoint y="25" as="targetPoint" />
          </mxGeometry>
        </mxCell>
        <mxCell id="tAJ4wL65wkqjfYGuhMK7-5" value="" style="endArrow=none;html=1;rounded=0;" parent="tAJ4wL65wkqjfYGuhMK7-8" edge="1">
          <mxGeometry width="50" height="50" relative="1" as="geometry">
            <mxPoint y="25" as="sourcePoint" />
            <mxPoint x="30" as="targetPoint" />
          </mxGeometry>
        </mxCell>
        <mxCell id="tAJ4wL65wkqjfYGuhMK7-6" value="" style="endArrow=none;html=1;rounded=0;" parent="tAJ4wL65wkqjfYGuhMK7-8" edge="1">
          <mxGeometry width="50" height="50" relative="1" as="geometry">
            <mxPoint y="75" as="sourcePoint" />
            <mxPoint x="30" y="100" as="targetPoint" />
          </mxGeometry>
        </mxCell>
        <mxCell id="tAJ4wL65wkqjfYGuhMK7-7" value="" style="endArrow=none;html=1;rounded=0;" parent="tAJ4wL65wkqjfYGuhMK7-8" edge="1">
          <mxGeometry width="50" height="50" relative="1" as="geometry">
            <mxPoint x="30" y="100" as="sourcePoint" />
            <mxPoint x="30" as="targetPoint" />
          </mxGeometry>
        </mxCell>
        <mxCell id="tAJ4wL65wkqjfYGuhMK7-12" value="" style="endArrow=none;html=1;rounded=0;" parent="1" edge="1">
          <mxGeometry width="50" height="50" relative="1" as="geometry">
            <mxPoint x="888" y="150" as="sourcePoint" />
            <mxPoint x="988" y="150" as="targetPoint" />
          </mxGeometry>
        </mxCell>
        <mxCell id="tAJ4wL65wkqjfYGuhMK7-13" value="" style="endArrow=none;html=1;rounded=0;" parent="1" edge="1">
          <mxGeometry width="50" height="50" relative="1" as="geometry">
            <mxPoint x="928" y="165" as="sourcePoint" />
            <mxPoint x="958" y="135" as="targetPoint" />
          </mxGeometry>
        </mxCell>
        <mxCell id="tAJ4wL65wkqjfYGuhMK7-14" value="4" style="text;html=1;align=center;verticalAlign=middle;resizable=0;points=[];autosize=1;strokeColor=none;fillColor=none;" parent="1" vertex="1">
          <mxGeometry x="923" y="118" width="30" height="30" as="geometry" />
        </mxCell>
        <mxCell id="tAJ4wL65wkqjfYGuhMK7-15" value="duty_cycle" style="text;html=1;align=center;verticalAlign=middle;resizable=0;points=[];autosize=1;strokeColor=none;fillColor=none;" parent="1" vertex="1">
          <mxGeometry x="898" y="158" width="80" height="30" as="geometry" />
        </mxCell>
        <mxCell id="tAJ4wL65wkqjfYGuhMK7-19" value="" style="group" parent="1" vertex="1" connectable="0">
          <mxGeometry x="988" y="100" width="100" height="100" as="geometry" />
        </mxCell>
        <mxCell id="tAJ4wL65wkqjfYGuhMK7-16" value="" style="whiteSpace=wrap;html=1;aspect=fixed;" parent="tAJ4wL65wkqjfYGuhMK7-19" vertex="1">
          <mxGeometry width="80" height="80" as="geometry" />
        </mxCell>
        <mxCell id="tAJ4wL65wkqjfYGuhMK7-17" value="" style="whiteSpace=wrap;html=1;aspect=fixed;" parent="tAJ4wL65wkqjfYGuhMK7-19" vertex="1">
          <mxGeometry x="10" y="10" width="80" height="80" as="geometry" />
        </mxCell>
        <mxCell id="tAJ4wL65wkqjfYGuhMK7-18" value="PWM&lt;div&gt;x4&lt;/div&gt;" style="whiteSpace=wrap;html=1;aspect=fixed;" parent="tAJ4wL65wkqjfYGuhMK7-19" vertex="1">
          <mxGeometry x="20" y="20" width="80" height="80" as="geometry" />
        </mxCell>
        <mxCell id="tAJ4wL65wkqjfYGuhMK7-21" style="edgeStyle=orthogonalEdgeStyle;rounded=0;orthogonalLoop=1;jettySize=auto;html=1;exitX=0.5;exitY=0;exitDx=0;exitDy=0;entryX=0.5;entryY=1;entryDx=0;entryDy=0;" parent="1" source="tAJ4wL65wkqjfYGuhMK7-20" target="tAJ4wL65wkqjfYGuhMK7-1" edge="1">
          <mxGeometry relative="1" as="geometry" />
        </mxCell>
        <mxCell id="tAJ4wL65wkqjfYGuhMK7-39" value="state&lt;div&gt;tick&lt;/div&gt;" style="edgeLabel;html=1;align=center;verticalAlign=middle;resizable=0;points=[];" parent="tAJ4wL65wkqjfYGuhMK7-21" vertex="1" connectable="0">
          <mxGeometry x="-0.0588" relative="1" as="geometry">
            <mxPoint x="14" as="offset" />
          </mxGeometry>
        </mxCell>
        <mxCell id="tAJ4wL65wkqjfYGuhMK7-20" value="Two Speed Counter" style="rounded=0;whiteSpace=wrap;html=1;" parent="1" vertex="1">
          <mxGeometry x="668" y="310" width="120" height="60" as="geometry" />
        </mxCell>
        <mxCell id="tAJ4wL65wkqjfYGuhMK7-22" value="" style="group;flipH=1;flipV=1;rotation=-180;" parent="1" vertex="1" connectable="0">
          <mxGeometry x="588" y="290" width="30" height="100" as="geometry" />
        </mxCell>
        <mxCell id="tAJ4wL65wkqjfYGuhMK7-23" value="" style="endArrow=none;html=1;rounded=0;" parent="tAJ4wL65wkqjfYGuhMK7-22" edge="1">
          <mxGeometry width="50" height="50" relative="1" as="geometry">
            <mxPoint x="30" y="25" as="sourcePoint" />
            <mxPoint x="30" y="75" as="targetPoint" />
          </mxGeometry>
        </mxCell>
        <mxCell id="tAJ4wL65wkqjfYGuhMK7-24" value="" style="endArrow=none;html=1;rounded=0;" parent="tAJ4wL65wkqjfYGuhMK7-22" edge="1">
          <mxGeometry width="50" height="50" relative="1" as="geometry">
            <mxPoint x="30" y="75" as="sourcePoint" />
            <mxPoint y="100" as="targetPoint" />
          </mxGeometry>
        </mxCell>
        <mxCell id="tAJ4wL65wkqjfYGuhMK7-25" value="" style="endArrow=none;html=1;rounded=0;" parent="tAJ4wL65wkqjfYGuhMK7-22" edge="1">
          <mxGeometry width="50" height="50" relative="1" as="geometry">
            <mxPoint x="30" y="25" as="sourcePoint" />
            <mxPoint as="targetPoint" />
          </mxGeometry>
        </mxCell>
        <mxCell id="tAJ4wL65wkqjfYGuhMK7-26" value="" style="endArrow=none;html=1;rounded=0;" parent="tAJ4wL65wkqjfYGuhMK7-22" edge="1">
          <mxGeometry width="50" height="50" relative="1" as="geometry">
            <mxPoint as="sourcePoint" />
            <mxPoint y="100" as="targetPoint" />
          </mxGeometry>
        </mxCell>
        <mxCell id="tAJ4wL65wkqjfYGuhMK7-27" value="" style="edgeStyle=none;orthogonalLoop=1;jettySize=auto;html=1;rounded=0;entryX=0;entryY=0.5;entryDx=0;entryDy=0;" parent="1" target="tAJ4wL65wkqjfYGuhMK7-20" edge="1">
          <mxGeometry width="100" relative="1" as="geometry">
            <mxPoint x="618" y="340" as="sourcePoint" />
            <mxPoint x="678" y="350" as="targetPoint" />
            <Array as="points" />
          </mxGeometry>
        </mxCell>
        <mxCell id="tAJ4wL65wkqjfYGuhMK7-28" value="" style="edgeStyle=none;orthogonalLoop=1;jettySize=auto;html=1;rounded=0;" parent="1" edge="1">
          <mxGeometry width="100" relative="1" as="geometry">
            <mxPoint x="498" y="320" as="sourcePoint" />
            <mxPoint x="588" y="320" as="targetPoint" />
            <Array as="points" />
          </mxGeometry>
        </mxCell>
        <mxCell id="tAJ4wL65wkqjfYGuhMK7-30" value="slow max" style="edgeLabel;html=1;align=center;verticalAlign=middle;resizable=0;points=[];" parent="tAJ4wL65wkqjfYGuhMK7-28" vertex="1" connectable="0">
          <mxGeometry x="-0.4963" y="3" relative="1" as="geometry">
            <mxPoint x="17" y="-7" as="offset" />
          </mxGeometry>
        </mxCell>
        <mxCell id="tAJ4wL65wkqjfYGuhMK7-29" value="" style="edgeStyle=none;orthogonalLoop=1;jettySize=auto;html=1;rounded=0;" parent="1" edge="1">
          <mxGeometry width="100" relative="1" as="geometry">
            <mxPoint x="498" y="360" as="sourcePoint" />
            <mxPoint x="588" y="360" as="targetPoint" />
            <Array as="points" />
          </mxGeometry>
        </mxCell>
        <mxCell id="tAJ4wL65wkqjfYGuhMK7-31" value="fast max" style="edgeLabel;html=1;align=center;verticalAlign=middle;resizable=0;points=[];" parent="tAJ4wL65wkqjfYGuhMK7-29" vertex="1" connectable="0">
          <mxGeometry x="-0.4519" y="2" relative="1" as="geometry">
            <mxPoint x="15" y="-8" as="offset" />
          </mxGeometry>
        </mxCell>
        <mxCell id="tAJ4wL65wkqjfYGuhMK7-32" value="Input&lt;div&gt;Sync&lt;/div&gt;" style="rounded=0;whiteSpace=wrap;html=1;" parent="1" vertex="1">
          <mxGeometry x="218" y="220" width="120" height="60" as="geometry" />
        </mxCell>
        <mxCell id="tAJ4wL65wkqjfYGuhMK7-34" value="" style="edgeStyle=none;orthogonalLoop=1;jettySize=auto;html=1;rounded=0;entryX=0;entryY=0.5;entryDx=0;entryDy=0;" parent="1" target="tAJ4wL65wkqjfYGuhMK7-32" edge="1">
          <mxGeometry width="100" relative="1" as="geometry">
            <mxPoint x="79" y="250" as="sourcePoint" />
            <mxPoint x="149" y="250" as="targetPoint" />
            <Array as="points" />
          </mxGeometry>
        </mxCell>
        <mxCell id="tAJ4wL65wkqjfYGuhMK7-35" value="sw(0) speed" style="edgeLabel;html=1;align=center;verticalAlign=middle;resizable=0;points=[];" parent="tAJ4wL65wkqjfYGuhMK7-34" vertex="1" connectable="0">
          <mxGeometry x="-0.6882" y="3" relative="1" as="geometry">
            <mxPoint x="28" y="-7" as="offset" />
          </mxGeometry>
        </mxCell>
        <mxCell id="tAJ4wL65wkqjfYGuhMK7-36" value="Reset&lt;br&gt;&lt;div&gt;Sync&lt;/div&gt;" style="rounded=0;whiteSpace=wrap;html=1;" parent="1" vertex="1">
          <mxGeometry x="218" y="103" width="120" height="60" as="geometry" />
        </mxCell>
        <mxCell id="tAJ4wL65wkqjfYGuhMK7-37" value="" style="edgeStyle=none;orthogonalLoop=1;jettySize=auto;html=1;rounded=0;entryX=0;entryY=0.5;entryDx=0;entryDy=0;" parent="1" target="tAJ4wL65wkqjfYGuhMK7-36" edge="1">
          <mxGeometry width="100" relative="1" as="geometry">
            <mxPoint x="79" y="133" as="sourcePoint" />
            <mxPoint x="149" y="133" as="targetPoint" />
            <Array as="points" />
          </mxGeometry>
        </mxCell>
        <mxCell id="tAJ4wL65wkqjfYGuhMK7-38" value="key(0) reset" style="edgeLabel;html=1;align=center;verticalAlign=middle;resizable=0;points=[];" parent="tAJ4wL65wkqjfYGuhMK7-37" vertex="1" connectable="0">
          <mxGeometry x="-0.6882" y="3" relative="1" as="geometry">
            <mxPoint x="28" y="-7" as="offset" />
          </mxGeometry>
        </mxCell>
        <mxCell id="tAJ4wL65wkqjfYGuhMK7-50" value="" style="group" parent="1" vertex="1" connectable="0">
          <mxGeometry x="599" y="430" width="243" height="240" as="geometry" />
        </mxCell>
        <mxCell id="tAJ4wL65wkqjfYGuhMK7-42" value="PWM&lt;div&gt;&lt;br&gt;&lt;/div&gt;&lt;div&gt;&lt;br&gt;&lt;/div&gt;&lt;div&gt;&lt;br&gt;&lt;/div&gt;&lt;div&gt;&lt;br&gt;&lt;/div&gt;&lt;div&gt;&lt;br&gt;&lt;/div&gt;&lt;div&gt;&lt;br&gt;&lt;/div&gt;&lt;div&gt;&lt;br&gt;&lt;/div&gt;&lt;div&gt;&lt;br&gt;&lt;/div&gt;&lt;div&gt;&lt;br&gt;&lt;/div&gt;&lt;div&gt;&lt;br&gt;&lt;/div&gt;&lt;div&gt;&lt;br&gt;&lt;/div&gt;&lt;div&gt;&lt;br&gt;&lt;/div&gt;&lt;div&gt;&lt;br&gt;&lt;/div&gt;" style="rounded=0;whiteSpace=wrap;html=1;" parent="tAJ4wL65wkqjfYGuhMK7-50" vertex="1">
          <mxGeometry width="181" height="240" as="geometry" />
        </mxCell>
        <mxCell id="tAJ4wL65wkqjfYGuhMK7-45" style="edgeStyle=orthogonalEdgeStyle;rounded=0;orthogonalLoop=1;jettySize=auto;html=1;exitX=0.5;exitY=1;exitDx=0;exitDy=0;entryX=0.5;entryY=0;entryDx=0;entryDy=0;" parent="tAJ4wL65wkqjfYGuhMK7-50" source="tAJ4wL65wkqjfYGuhMK7-41" target="tAJ4wL65wkqjfYGuhMK7-44" edge="1">
          <mxGeometry relative="1" as="geometry" />
        </mxCell>
        <mxCell id="tAJ4wL65wkqjfYGuhMK7-46" value="PWM tick" style="edgeLabel;html=1;align=center;verticalAlign=middle;resizable=0;points=[];" parent="tAJ4wL65wkqjfYGuhMK7-45" vertex="1" connectable="0">
          <mxGeometry x="-0.0167" relative="1" as="geometry">
            <mxPoint x="29" y="-2" as="offset" />
          </mxGeometry>
        </mxCell>
        <mxCell id="tAJ4wL65wkqjfYGuhMK7-41" value="Counter" style="rounded=0;whiteSpace=wrap;html=1;" parent="tAJ4wL65wkqjfYGuhMK7-50" vertex="1">
          <mxGeometry x="20" y="50" width="111" height="40" as="geometry" />
        </mxCell>
        <mxCell id="tAJ4wL65wkqjfYGuhMK7-44" value="State&lt;div&gt;Machine&lt;/div&gt;" style="whiteSpace=wrap;html=1;aspect=fixed;" parent="tAJ4wL65wkqjfYGuhMK7-50" vertex="1">
          <mxGeometry x="35.5" y="130" width="80" height="80" as="geometry" />
        </mxCell>
        <mxCell id="tAJ4wL65wkqjfYGuhMK7-47" value="" style="endArrow=none;html=1;rounded=0;" parent="tAJ4wL65wkqjfYGuhMK7-50" edge="1">
          <mxGeometry width="50" height="50" relative="1" as="geometry">
            <mxPoint x="115.5" y="170" as="sourcePoint" />
            <mxPoint x="241" y="170" as="targetPoint" />
          </mxGeometry>
        </mxCell>
        <mxCell id="tAJ4wL65wkqjfYGuhMK7-49" value="LEDn" style="text;html=1;align=center;verticalAlign=middle;resizable=0;points=[];autosize=1;strokeColor=none;fillColor=none;" parent="tAJ4wL65wkqjfYGuhMK7-50" vertex="1">
          <mxGeometry x="193" y="146" width="50" height="30" as="geometry" />
        </mxCell>
        <mxCell id="tAJ4wL65wkqjfYGuhMK7-52" value="" style="endArrow=none;html=1;rounded=0;" parent="1" edge="1">
          <mxGeometry width="50" height="50" relative="1" as="geometry">
            <mxPoint x="606" y="305" as="sourcePoint" />
            <mxPoint x="606" y="250" as="targetPoint" />
          </mxGeometry>
        </mxCell>
        <mxCell id="tAJ4wL65wkqjfYGuhMK7-53" value="" style="endArrow=none;html=1;rounded=0;" parent="1" edge="1">
          <mxGeometry width="50" height="50" relative="1" as="geometry">
            <mxPoint x="339" y="250" as="sourcePoint" />
            <mxPoint x="606" y="250" as="targetPoint" />
          </mxGeometry>
        </mxCell>
        <mxCell id="tAJ4wL65wkqjfYGuhMK7-55" style="edgeStyle=orthogonalEdgeStyle;rounded=0;orthogonalLoop=1;jettySize=auto;html=1;exitX=1;exitY=0.5;exitDx=0;exitDy=0;entryX=0.001;entryY=0.142;entryDx=0;entryDy=0;entryPerimeter=0;" parent="1" source="tAJ4wL65wkqjfYGuhMK7-36" target="tAJ4wL65wkqjfYGuhMK7-54" edge="1">
          <mxGeometry relative="1" as="geometry" />
        </mxCell>
        <mxCell id="tAJ4wL65wkqjfYGuhMK7-56" value="reset" style="edgeLabel;html=1;align=center;verticalAlign=middle;resizable=0;points=[];" parent="tAJ4wL65wkqjfYGuhMK7-55" vertex="1" connectable="0">
          <mxGeometry x="-0.2031" y="3" relative="1" as="geometry">
            <mxPoint x="6" y="-6" as="offset" />
          </mxGeometry>
        </mxCell>
      </root>
    </mxGraphModel>
  </diagram>
</mxfile>
